<?xml version="1.0" standalone="no"?>
<!DOCTYPE svg PUBLIC "-//W3C//DTD SVG 20010904//EN"
 "http://www.w3.org/TR/2001/REC-SVG-20010904/DTD/svg10.dtd">
<svg version="1.0" xmlns="http://www.w3.org/2000/svg"
 width="1800.000000pt" height="1800.000000pt" viewBox="0 0 1800.000000 1800.000000"
 preserveAspectRatio="xMidYMid meet">
<rect width="1800" height="1800" fill="#000000"/>
<g transform="translate(-1180.000000,2420.000000) scale(0.280000,-0.280000)"
fill="#00e5ff" stroke="#00e5ff" stroke-width="150">
<path d="M5970 5560 l0 -2471 918 3 c834 4 926 6 1012 22 219 42 454 133 621
241 385 249 653 658 740 1132 31 165 31 410 1 575 -27 143 -78 301 -133 413
l-42 85 41 88 c150 322 191 661 126 1027 -37 212 -151 481 -282 665 -74 104
-223 260 -317 332 -229 174 -432 269 -700 329 -99 23 -107 23 -1042 26 l-943
4 0 -2471z m889 2281 c-315 -177 -540 -403 -709 -714 l-40 -72 0 412 0 412 88
4 c48 1 236 4 417 5 l330 2 -86 -49z m693 -1478 c-1 -834 -5 -1519 -7 -1522
-3 -3 -52 0 -108 7 -566 64 -1064 475 -1251 1033 -58 175 -70 259 -71 479 0
169 3 209 23 299 45 201 118 372 231 544 211 320 510 541 862 637 94 25 174
37 259 39 l65 1 -3 -1517z m451 1478 c360 -91 659 -303 869 -616 237 -353 326
-796 240 -1190 -29 -129 -107 -336 -121 -319 -4 5 -25 32 -46 59 -285 364
-659 581 -1108 643 l-132 18 -3 723 -2 724 95 -7 c52 -3 146 -19 208 -35z
m-145 -1567 c250 -37 504 -153 729 -332 108 -86 230 -218 291 -317 l40 -64
-56 -83 c-79 -117 -264 -298 -387 -381 -215 -142 -468 -234 -700 -254 l-75 -6
0 727 0 726 26 0 c15 0 74 -7 132 -16z m-1596 -859 c141 -209 342 -392 586
-531 l77 -44 -407 0 -408 0 0 417 0 418 53 -95 c29 -52 73 -126 99 -165z
m2800 -159 c63 -171 95 -395 83 -566 -55 -766 -639 -1385 -1362 -1446 l-83 -7
0 726 0 726 58 6 c227 26 395 71 567 154 249 120 442 273 608 484 l61 78 20
-38 c10 -21 32 -74 48 -117z m-1512 -1291 l0 -725 -720 0 -720 0 0 720 0 720
378 3 c207 1 531 3 720 5 l342 2 0 -725z"/>
</g>
</svg>
